<svg width="239" height="317" viewBox="0 0 239 317" fill="none" xmlns="http://www.w3.org/2000/svg">
<path d="M93.0306 171.765C106.873 145.731 124.72 125.015 142.363 112.56C160.031 100.087 177.356 95.9833 190.267 102.848C203.178 109.713 209.464 126.371 209.003 147.993C208.543 169.584 201.349 195.964 187.506 221.999C173.663 248.033 155.816 268.749 138.174 281.204C120.505 293.678 103.181 297.781 90.2696 290.916C77.3585 284.051 71.0726 267.394 71.5335 245.771C71.9937 224.18 79.1878 197.8 93.0306 171.765Z" stroke="#44FFA1"/>
<path d="M57.0306 152.765C70.8733 126.731 88.7205 106.015 106.363 93.5602C124.031 81.0867 141.356 76.9833 154.267 83.8482C167.178 90.7132 173.464 107.371 173.003 128.993C172.543 150.584 165.349 176.964 151.506 202.999C137.663 229.033 119.816 249.749 102.174 262.204C84.5053 274.678 67.1807 278.781 54.2696 271.916C41.3585 265.051 35.0726 248.394 35.5335 226.771C35.9937 205.18 43.1878 178.8 57.0306 152.765Z" stroke="#44FFA1"/>
<path opacity="0.75" d="M22.9135 134.235C36.7569 108.199 54.5062 87.4302 71.9902 74.89C89.5025 62.3295 106.604 58.1152 119.267 64.8482C131.93 71.5812 137.999 88.1156 137.379 109.658C136.759 131.165 129.466 157.494 115.623 183.529C101.78 209.565 84.0304 230.334 66.5464 242.874C49.0341 255.435 31.9325 259.649 19.2696 252.916C6.60664 246.183 0.537374 229.649 1.15774 208.106C1.7771 186.599 9.07019 160.27 22.9135 134.235Z" stroke="#44FFA1"/>
<path opacity="0.5" d="M-13.9694 113.765C-0.126673 87.731 17.7205 67.0153 35.3628 54.5602C53.0313 42.0867 70.3559 37.9833 83.267 44.8482C96.1781 51.7132 102.464 68.3705 102.003 89.9935C101.543 111.584 94.3487 137.964 80.506 163.999C66.6632 190.033 48.8161 210.749 31.1738 223.204C13.5053 235.678 -3.81935 239.781 -16.7304 232.916C-29.6415 226.051 -35.9274 209.394 -35.4665 187.771C-35.0063 166.18 -27.8122 139.8 -13.9694 113.765Z" stroke="#44FFA1"/>
<path opacity="0.25" d="M-50.0865 95.2349C-36.2431 69.1993 -18.4938 48.4302 -1.0098 35.89C16.5025 23.3295 33.6041 19.1152 46.267 25.8482C58.9299 32.5812 64.9992 49.1156 64.3788 70.6578C63.7595 92.165 56.4664 118.494 42.623 144.529C28.7797 170.565 11.0304 191.334 -6.45362 203.874C-23.9659 216.435 -41.0675 220.649 -53.7304 213.916C-66.3934 207.183 -72.4626 190.649 -71.8423 169.106C-71.2229 147.599 -63.9298 121.27 -50.0865 95.2349Z" stroke="#44FFA1"/>
</svg>
