<svg width="20" height="20" viewBox="0 0 20 20" fill="none" xmlns="http://www.w3.org/2000/svg">
<path d="M20 4.40537C19.2642 4.73203 18.4733 4.95203 17.6433 5.0512C18.4908 4.5437 19.1417 3.73953 19.4475 2.7812C18.655 3.2512 17.7767 3.59287 16.8417 3.77703C16.0942 2.97953 15.0267 2.4812 13.8467 2.4812C11.1975 2.4812 9.25083 4.95287 9.84917 7.5187C6.44 7.34787 3.41667 5.71453 1.3925 3.23203C0.3175 5.0762 0.835 7.4887 2.66167 8.71037C1.99 8.6887 1.35667 8.50453 0.804167 8.19703C0.759167 10.0979 2.12167 11.8762 4.095 12.272C3.5175 12.4287 2.885 12.4654 2.24167 12.342C2.76333 13.972 4.27833 15.1579 6.075 15.1912C4.35 16.5437 2.17667 17.1479 0 16.8912C1.81583 18.0554 3.97333 18.7345 6.29 18.7345C13.9083 18.7345 18.2125 12.3004 17.9525 6.52953C18.7542 5.95037 19.45 5.22787 20 4.40537Z" fill="#584D62"/>
</svg>
